<?xml version="1.0" encoding="UTF-8" standalone="no"?>


<svg version="1.1" id="svg1" width="2027.4667" height="608.12933" viewBox="0 0 2027.4667 608.12933" xmlns:sodipodi-0.dtd="http://sodipodi.sourceforge.net/DTD/sodipodi-0.dtd" xmlns:sodipodi-0.dtd="http://sodipodi.sourceforge.net/DTD/sodipodi-0.dtd" sodipodi-0.dtd:docname="DexaFit Logo (Outline).ai" xmlns:inkscape="http://www.inkscape.org/namespaces/inkscape" xmlns:sodipodi="http://sodipodi.sourceforge.net/DTD/sodipodi-0.dtd" xmlns:xlink="http://www.w3.org/1999/xlink" xmlns="http://www.w3.org/2000/svg" xmlns:svg="http://www.w3.org/2000/svg">
  <defs id="defs1">
    <color-profile xmlns:inkscape="http://www.inkscape.org/namespaces/inkscape" xmlns:inkscape="http://www.inkscape.org/namespaces/inkscape" inkscape:label="sRGB IEC61966-2.1" name="sRGB IEC61966-2.1" id="color-profile1"></color-profile>
    <clipPath clipPathUnits="userSpaceOnUse" id="clipPath3">
      <path d="M 0,456.097 H 1520.596 V 0 H 0 Z" transform="translate(-265.792,-266.2178)" id="path3"></path>
    </clipPath>
    <clipPath clipPathUnits="userSpaceOnUse" id="clipPath5">
      <path d="M 0,456.097 H 1520.596 V 0 H 0 Z" transform="translate(-98.723605,-163.0156)" id="path5"></path>
    </clipPath>
    <clipPath clipPathUnits="userSpaceOnUse" id="clipPath7">
      <path d="M 0,456.097 H 1520.596 V 0 H 0 Z" transform="translate(-1009.7043,-352.33091)" id="path7"></path>
    </clipPath>
    <clipPath clipPathUnits="userSpaceOnUse" id="clipPath9">
      <path d="M 0,456.097 H 1520.596 V 0 H 0 Z" transform="translate(-478.74871,-207.1673)" id="path9"></path>
    </clipPath>
    <clipPath clipPathUnits="userSpaceOnUse" id="clipPath11">
      <path d="M 0,456.097 H 1520.596 V 0 H 0 Z" transform="translate(-721.95762,-198.1357)" id="path11"></path>
    </clipPath>
    <clipPath clipPathUnits="userSpaceOnUse" id="clipPath13">
      <path d="M 0,456.097 H 1520.596 V 0 H 0 Z" transform="translate(-859.342,-183.78421)" id="path13"></path>
    </clipPath>
    <clipPath clipPathUnits="userSpaceOnUse" id="clipPath15">
      <path d="M 0,456.097 H 1520.596 V 0 H 0 Z" transform="translate(-1140.417,-325.51261)" id="path15"></path>
    </clipPath>
    <clipPath clipPathUnits="userSpaceOnUse" id="clipPath17">
      <path d="M 0,456.097 H 1520.596 V 0 H 0 Z" transform="translate(-1260.7638,-352.33091)" id="path17"></path>
    </clipPath>
    <clipPath clipPathUnits="userSpaceOnUse" id="clipPath19">
      <path d="M 0,456.097 H 1520.596 V 0 H 0 Z" transform="translate(-1358.8059,-325.26701)" id="path19"></path>
    </clipPath>
  </defs>
  <namedview id="namedview1" pagecolor="#ffffff" bordercolor="#000000" borderopacity="0.25" xmlns:inkscape="http://www.inkscape.org/namespaces/inkscape" xmlns:inkscape="http://www.inkscape.org/namespaces/inkscape" inkscape:showpageshadow="2" inkscape:pageopacity="0.0" inkscape:pagecheckerboard="0" inkscape:deskcolor="#d1d1d1">
    <page x="0" y="0" inkscape:label="1" id="page1" width="2027.4667" height="608.12933" margin="0" bleed="0"></page>
  </namedview>
  <g id="layer-MC0" xmlns:inkscape="http://www.inkscape.org/namespaces/inkscape" xmlns:inkscape="http://www.inkscape.org/namespaces/inkscape" inkscape:groupmode="layer" inkscape:label="Layer 1">
    <path id="path1" d="M 0,0 H 1520.596 V 456.098 H 0 Z" style="fill:#ffffff;fill-opacity:1;fill-rule:nonzero;stroke:none" transform="matrix(1.3333333,0,0,-1.3333333,0,608.12933)"></path>
    <path id="path2" d="m 0,0 51.258,51.253 c 8.718,8.706 13.517,20.29 13.517,32.62 0,10.063 -2.956,21.041 -9.728,28.714 -6.775,7.677 -15.511,13.685 -25.539,16.123 -9.54,2.319 -19.813,1.479 -28.856,-2.339 -5.46,-2.304 -10.447,-5.674 -14.637,-9.863 l -59.03,-59.027 7.758,-7.758 0.009,-10.992 h 4.549 L -57.48,41.95 -23.299,7.769 -26.721,0 l 3.422,-7.769 c 0,0 -34.18,-34.18 -34.182,-34.178 l -15.534,-15.534 59.03,-59.027 c 14.907,-14.903 38.516,-17.599 56.541,-6.793 6.735,4.038 12.689,9.902 16.538,16.771 7.288,13.006 7.635,29.815 0.868,43.095 C 54.663,-53.036 45.459,-45.457 37.321,-37.32 29.748,-29.746 22.174,-22.173 14.6,-14.6 9.844,-9.844 5.089,-5.088 0.333,-0.333 Z" style="fill:#46a5fc;fill-opacity:1;fill-rule:nonzero;stroke:none" transform="matrix(1.3333333,0,0,-1.3333333,354.38933,253.17227)" clip-path="url(#clipPath3)"></path>
    <path id="path4" d="m 0,0 c 4.887,-4.554 11.222,-7.051 17.941,-7.051 7.039,0 13.66,2.746 18.641,7.726 L 139.112,103.202 36.582,205.73 c -4.981,4.98 -11.602,7.725 -18.641,7.725 -6.761,0 -13.128,-2.527 -18.029,-7.132 l -0.617,-0.621 c -4.98,-4.969 -7.721,-11.586 -7.721,-18.627 0,-7.042 2.741,-13.659 7.721,-18.627 L 64.511,103.202 -0.7,37.964 C -5.685,32.988 -8.426,26.371 -8.426,19.33 c 0,-7.042 2.741,-13.659 7.721,-18.627 z m 17.941,-24.623 c -11.737,0 -22.773,4.57 -31.069,12.873 l -2.573,2.819 C -22.369,-1.034 -26,8.866 -26,19.33 c 0,11.743 4.572,22.774 12.877,31.063 l 52.788,52.809 -52.793,52.816 C -21.428,164.3 -26,175.332 -26,187.075 c 0,10.463 3.631,20.363 10.299,28.26 v 0.223 l 2.573,2.597 c 8.296,8.302 19.332,12.872 31.069,12.872 11.731,0 22.768,-4.57 31.068,-12.87 L 163.966,103.202 49.009,-11.753 c -8.3,-8.3 -19.337,-12.87 -31.068,-12.87" style="fill:#525252;fill-opacity:1;fill-rule:nonzero;stroke:none" transform="matrix(1.3333333,0,0,-1.3333333,131.63147,390.7752)" clip-path="url(#clipPath5)"></path>
    <path id="path6" d="m 0,0 h -20.137 c -3.458,0 -6.594,-2.028 -8.013,-5.181 l -69.595,-154.652 c -2.617,-5.815 1.637,-12.394 8.013,-12.394 h 13.584 c 3.517,0 6.695,2.097 8.078,5.33 l 57.751,134.912 57.995,-134.924 c 1.387,-3.227 4.561,-5.318 8.073,-5.318 h 14.067 c 6.381,0 10.635,6.587 8.009,12.403 L 8.009,-5.172 C 6.588,-2.024 3.454,0 0,0" style="fill:#525252;fill-opacity:1;fill-rule:nonzero;stroke:none" transform="matrix(1.3333333,0,0,-1.3333333,1346.2723,138.3548)" clip-path="url(#clipPath7)"></path>
    <path id="path8" d="m 0,0 c 12.629,0 23.743,2.42 33.339,7.26 9.595,4.835 16.977,11.724 22.143,20.667 5.167,8.937 7.751,19.313 7.751,31.123 0,11.81 -2.584,22.182 -7.751,31.124 -5.166,8.938 -12.548,15.827 -22.143,20.667 C 23.743,115.678 12.629,118.1 0,118.1 H -41.827 V 0 Z m -73.812,136.376 c 0,4.853 3.934,8.788 8.787,8.788 H 1.476 c 18.369,0 34.692,-3.568 48.962,-10.703 14.271,-7.136 25.342,-17.223 33.216,-30.263 7.873,-13.04 11.81,-28.09 11.81,-45.148 0,-17.061 -3.937,-32.107 -11.81,-45.148 C 75.78,0.862 64.709,-9.225 50.438,-16.36 36.168,-23.495 19.845,-27.063 1.476,-27.063 h -66.501 c -4.853,0 -8.787,3.934 -8.787,8.787 z" style="fill:#525252;fill-opacity:1;fill-rule:nonzero;stroke:none" transform="matrix(1.3333333,0,0,-1.3333333,638.3316,331.90627)" clip-path="url(#clipPath9)"></path>
    <path id="path10" d="m 0,0 v -9.244 c 0,-4.853 -3.934,-8.787 -8.787,-8.787 h -111.598 c -4.853,0 -8.788,3.934 -8.788,8.787 v 154.652 c 0,4.853 3.935,8.787 8.788,8.787 h 108.153 c 4.853,0 8.787,-3.934 8.787,-8.787 v -9.244 c 0,-4.853 -3.934,-8.787 -8.787,-8.787 H -97.187 V 84.114 h 74.374 c 4.853,0 8.787,-3.934 8.787,-8.787 v -8.751 c 0,-4.853 -3.934,-8.788 -8.787,-8.788 H -97.187 V 8.787 h 88.4 C -3.934,8.787 0,4.853 0,0" style="fill:#525252;fill-opacity:1;fill-rule:nonzero;stroke:none" transform="matrix(1.3333333,0,0,-1.3333333,962.61013,343.9484)" clip-path="url(#clipPath11)"></path>
    <path id="path12" d="M 0,0 -44.118,61.766 -87.749,0.036 c -1.646,-2.33 -4.322,-3.716 -7.175,-3.716 h -14.594 c -7.185,0 -11.333,8.153 -7.103,13.961 l 53.803,73.874 -50.55,70.483 c -4.17,5.815 -0.015,13.909 7.14,13.909 h 14.547 c 2.828,0 5.484,-1.362 7.135,-3.658 l 41.411,-57.605 40.922,57.567 c 1.648,2.318 4.317,3.696 7.162,3.696 h 12.935 c 7.175,0 11.326,-8.135 7.115,-13.944 L -25.173,85.385 29.399,10.272 C 33.62,4.464 29.47,-3.68 22.29,-3.68 H 7.15 C 4.313,-3.68 1.649,-2.309 0,0" style="fill:#525252;fill-opacity:1;fill-rule:nonzero;stroke:none" transform="matrix(1.3333333,0,0,-1.3333333,1145.7893,363.08373)" clip-path="url(#clipPath13)"></path>
    <path id="path14" d="m 0,0 v -42.894 h 74.375 c 4.853,0 8.787,-3.934 8.787,-8.787 v -9.489 c 0,-4.853 -3.934,-8.788 -8.787,-8.788 H 0 v -66.663 c 0,-4.853 -3.934,-8.787 -8.787,-8.787 h -14.41 c -4.853,0 -8.787,3.934 -8.787,8.787 V 18.031 c 0,4.853 3.934,8.787 8.787,8.787 H 84.954 c 4.853,0 8.787,-3.934 8.787,-8.787 V 8.787 C 93.741,3.934 89.807,0 84.954,0 Z" style="fill:#46a5fc;fill-opacity:1;fill-rule:nonzero;stroke:none" transform="matrix(1.3333333,0,0,-1.3333333,1520.556,174.11253)" clip-path="url(#clipPath15)"></path>
    <path id="path16" d="m 0,0 h 14.41 c 4.853,0 8.787,-3.934 8.787,-8.787 v -154.652 c 0,-4.853 -3.934,-8.788 -8.787,-8.788 H 0 c -4.853,0 -8.787,3.935 -8.787,8.788 V -8.787 C -8.787,-3.934 -4.853,0 0,0" style="fill:#46a5fc;fill-opacity:1;fill-rule:nonzero;stroke:none" transform="matrix(1.3333333,0,0,-1.3333333,1681.0184,138.3548)" clip-path="url(#clipPath17)"></path>
    <path id="path18" d="m 0,0 h -48.293 c -4.853,0 -8.787,3.934 -8.787,8.787 v 9.49 c 0,4.853 3.934,8.787 8.787,8.787 H 80.279 c 4.853,0 8.787,-3.934 8.787,-8.787 V 8.787 C 89.066,3.934 85.132,0 80.279,0 H 31.986 v -136.375 c 0,-4.853 -3.934,-8.788 -8.787,-8.788 H 8.787 c -4.853,0 -8.787,3.935 -8.787,8.788 z" style="fill:#46a5fc;fill-opacity:1;fill-rule:nonzero;stroke:none" transform="matrix(1.3333333,0,0,-1.3333333,1811.7412,174.44)" clip-path="url(#clipPath19)"></path>
  </g>
</svg>